<svg width="37" height="38" viewBox="0 0 37 38" fill="none" xmlns="http://www.w3.org/2000/svg">
<g id="Group 11">
<path id="Rectangle 194" d="M24.1191 31.6367L19.7979 35.958C19.0168 36.739 17.7505 36.739 16.9694 35.958L12.6435 31.632L18.379 25.8965L24.1191 31.6367Z" fill="black"/>
<path id="Rectangle 197" d="M11.5059 30.4531L1.41366 20.3609C0.632615 19.5799 0.632614 18.3136 1.41366 17.5325L5.47929 13.4669L16.9857 24.9733L11.5059 30.4531Z" fill="black"/>
<path id="Rectangle 198" d="M18.3613 23.5986L8.27804 13.5153C7.49699 12.7343 7.49699 11.468 8.27804 10.6869L12.3403 6.6247L23.8378 18.1222L18.3613 23.5986Z" fill="#A5711C"/>
<path id="Rectangle 199" d="M25.2012 16.7637L28.4211 13.5437C29.2022 12.7627 29.2022 11.4963 28.4211 10.7153L24.3589 6.65307L19.7247 11.2872L25.2012 16.7637Z" fill="#A5711C"/>
<path id="Rectangle 200" d="M25.1895 30.4507L35.2367 20.4034C36.0178 19.6224 36.0178 18.356 35.2367 17.575L31.1711 13.5094L19.7096 24.9708L25.1895 30.4507Z" fill="black"/>
<rect id="Rectangle 201" x="18.334" y="0.628418" width="6.59471" height="6.59471" transform="rotate(45 18.334 0.628418)" fill="#A5711C"/>
</g>
</svg>
