<svg width="128" height="34" viewBox="0 0 128 34" fill="none" xmlns="http://www.w3.org/2000/svg">
<path d="M19.7461 26.7549L16.4653 30.036C15.6843 30.8171 14.418 30.8171 13.637 30.036L10.3523 26.751L15.0473 22.0556L19.7461 26.7549Z" fill="black"/>
<path d="M9.42188 25.7861L1.4171 17.7805C0.636095 16.9994 0.636093 15.733 1.4171 14.9519L4.48865 11.8801L13.9076 21.3L9.42188 25.7861Z" fill="black"/>
<path d="M15.0312 20.1748L7.03377 12.1765C6.25276 11.3954 6.25276 10.129 7.03377 9.3479L10.1025 6.27882L19.5142 15.6914L15.0312 20.1748Z" fill="#A5711C"/>
<path d="M20.6289 14.5791L23.0082 12.1996C23.7892 11.4185 23.7892 10.1521 23.0082 9.37098L19.9394 6.30189L16.146 10.0957L20.6289 14.5791Z" fill="#A5711C"/>
<path d="M20.6211 25.7842L28.5891 17.8153C29.3701 17.0343 29.3701 15.7679 28.5891 14.9868L25.5175 11.9149L16.1354 21.298L20.6211 25.7842Z" fill="black"/>
<rect width="5.39858" height="5.39858" transform="matrix(0.707069 0.707144 -0.707069 0.707144 15.0078 1.37012)" fill="#A5711C"/>
<path d="M49.1279 6.82216C49.1279 7.72216 48.9539 8.57416 48.6059 9.37816C48.2699 10.1702 47.8019 10.8662 47.2019 11.4662C46.6139 12.0662 45.9179 12.5402 45.1139 12.8882C44.3219 13.2362 43.4759 13.4102 42.5759 13.4102H39.0479V0.234155H42.5759C43.4759 0.234155 44.3219 0.408156 45.1139 0.756156C45.9179 1.10416 46.6139 1.57816 47.2019 2.17816C47.8019 2.77816 48.2699 3.48016 48.6059 4.28416C48.9539 5.07616 49.1279 5.92216 49.1279 6.82216ZM42.5039 11.6822C43.1759 11.6822 43.8059 11.5562 44.3939 11.3042C44.9939 11.0522 45.5159 10.7042 45.9599 10.2602C46.4039 9.81616 46.7519 9.30016 47.0039 8.71216C47.2679 8.12416 47.3999 7.50016 47.3999 6.84016C47.3999 6.16816 47.2679 5.53816 47.0039 4.95016C46.7519 4.35016 46.4039 3.82816 45.9599 3.38416C45.5159 2.94016 44.9939 2.59216 44.3939 2.34016C43.8059 2.08816 43.1759 1.96216 42.5039 1.96216H40.7579V11.6822H42.5039ZM52.5353 13.4102H50.8253V0.234155H52.5353V13.4102ZM55.9541 7.65016C56.0261 8.03416 56.1401 8.40016 56.2961 8.74816C56.5601 9.36016 56.9201 9.89416 57.3761 10.3502C57.8321 10.8062 58.3661 11.1662 58.9781 11.4302C59.5901 11.6942 60.2441 11.8262 60.9401 11.8262C61.5521 11.8262 62.1341 11.7242 62.6861 11.5202C63.2501 11.3042 63.7481 11.0102 64.1801 10.6382C64.6241 10.2662 64.9901 9.82816 65.2781 9.32416C65.5781 8.80816 65.7701 8.25016 65.8541 7.65016H55.9541ZM55.9541 5.92216H67.7081V6.78616C67.7081 7.72216 67.5281 8.60416 67.1681 9.43216C66.8201 10.2482 66.3401 10.9622 65.7281 11.5742C65.1281 12.1862 64.4141 12.6722 63.5861 13.0322C62.7701 13.3922 61.8881 13.5722 60.9401 13.5722C60.0041 13.5722 59.1221 13.3982 58.2941 13.0502C57.4781 12.6902 56.7641 12.2042 56.1521 11.5922C55.5401 10.9682 55.0541 10.2482 54.6941 9.43216C54.3461 8.60416 54.1721 7.72216 54.1721 6.78616C54.1721 5.85016 54.3521 4.96816 54.7121 4.14016C55.0721 3.31216 55.5581 2.59216 56.1701 1.98016C56.7941 1.36816 57.5201 0.888155 58.3481 0.540156C59.1881 0.180155 60.0821 0.000155091 61.0301 0.000155091C62.1221 0.000155091 63.1721 0.240155 64.1801 0.720155C65.1881 1.20016 66.1601 2.17216 67.0961 3.63616L65.7461 4.73416C64.9061 3.46216 64.1081 2.64616 63.3521 2.28616C62.5961 1.92616 61.8161 1.74616 61.0121 1.74616C60.3041 1.74616 59.6381 1.87816 59.0141 2.14216C58.3901 2.40616 57.8441 2.76616 57.3761 3.22216C56.9201 3.67816 56.5601 4.21216 56.2961 4.82416C56.1401 5.17216 56.0261 5.53816 55.9541 5.92216ZM71.0626 13.4102H69.3526V0.234155H71.0626V13.4102ZM81.7355 0.234155V1.96216H77.8115V13.4102H76.0835V1.96216H72.1595V0.234155H81.7355ZM84.545 13.4102H82.835V0.234155H84.545V13.4102ZM86.2719 0.234155H96.3519V1.81816L88.5759 11.6822H96.3519V13.4102H86.2719V11.8262L94.0479 1.98016H86.2719V0.234155ZM99.7853 13.4102H98.0753V0.234155H99.7853V13.4102ZM103.924 0.882156H103.492L103.582 13.4102H101.872V0.234155H105.256L109.828 12.7622H110.206L110.116 0.234155H111.826V13.4102H108.46L103.924 0.882156ZM115.245 7.65016C115.317 8.03416 115.431 8.40016 115.587 8.74816C115.851 9.36016 116.211 9.89416 116.667 10.3502C117.123 10.8062 117.657 11.1662 118.269 11.4302C118.881 11.6942 119.535 11.8262 120.231 11.8262C120.843 11.8262 121.425 11.7242 121.977 11.5202C122.541 11.3042 123.039 11.0102 123.471 10.6382C123.915 10.2662 124.281 9.82816 124.569 9.32416C124.869 8.80816 125.061 8.25016 125.145 7.65016H115.245ZM115.245 5.92216H126.999V6.78616C126.999 7.72216 126.819 8.60416 126.459 9.43216C126.111 10.2482 125.631 10.9622 125.019 11.5742C124.419 12.1862 123.705 12.6722 122.877 13.0322C122.061 13.3922 121.179 13.5722 120.231 13.5722C119.295 13.5722 118.413 13.3982 117.585 13.0502C116.769 12.6902 116.055 12.2042 115.443 11.5922C114.831 10.9682 114.345 10.2482 113.985 9.43216C113.637 8.60416 113.463 7.72216 113.463 6.78616C113.463 5.85016 113.643 4.96816 114.003 4.14016C114.363 3.31216 114.849 2.59216 115.461 1.98016C116.085 1.36816 116.811 0.888155 117.639 0.540156C118.479 0.180155 119.373 0.000155091 120.321 0.000155091C121.413 0.000155091 122.463 0.240155 123.471 0.720155C124.479 1.20016 125.451 2.17216 126.387 3.63616L125.037 4.73416C124.197 3.46216 123.399 2.64616 122.643 2.28616C121.887 1.92616 121.107 1.74616 120.303 1.74616C119.595 1.74616 118.929 1.87816 118.305 2.14216C117.681 2.40616 117.135 2.76616 116.667 3.22216C116.211 3.67816 115.851 4.21216 115.587 4.82416C115.431 5.17216 115.317 5.53816 115.245 5.92216ZM47.1839 16.2342H49.0379L44.3399 29.4102H42.7019L38.0039 16.2342H39.8399L43.5119 26.4402L47.1839 16.2342ZM51.797 29.4102H50.087V16.2342H51.797V29.4102ZM62.0198 29.4102H53.8838V16.2342H62.0198V17.9622H55.5938V21.9402H60.9038V23.6682H55.5938V27.6822H62.0198V29.4102ZM57.9518 14.6322L62.0738 15.3522L61.9838 15.7662L57.9518 15.0642L53.9018 15.7662L53.8298 15.3522L57.9518 14.6322ZM57.7358 33.0282V30.1482H58.1678V33.0282H57.7358ZM72.1554 16.2342V17.9622H68.2314V29.4102H66.5034V17.9622H62.5794V16.2342H72.1554ZM75.3069 16.8822H74.8749L74.9649 29.4102H73.2549V16.2342H76.6389L81.2109 28.7622H81.5889L81.4989 16.2342H83.2089V29.4102H79.8429L75.3069 16.8822ZM93.72 25.8102L90.894 18.1962H90.372L87.564 25.8102H93.72ZM94.368 27.5202H86.952L86.178 29.4102H84.252L89.184 16.2342H92.136L97.068 29.4102H95.07L94.368 27.5202ZM100.234 16.8642V16.8822H99.7304L99.8204 29.4102H98.1104V16.2342H101.386L104.716 27.8802L108.046 16.2342H111.358V29.4102H109.648L109.738 16.8822H109.27L105.634 29.4102H103.78L100.234 16.8642Z" fill="black"/>
</svg>
